<svg xmlns="http://www.w3.org/2000/svg" width="390" height="22" fill="none" xmlns:v="https://vecta.io/nano"><path d="M0 6.367c.642-.789 1.468-.316 2.155-.526.917-.316 1.468 1.315 2.385.473 1.009-.894 1.605.21 2.385.579.413.158.871.053 1.33.105 1.376.158 2.706-1.947 4.082-.053l4.494.105 4.082.053 4.494.105 20.775.316c2.339 0 4.77.684 7.017-.789.459-.316 1.192-.053 1.789-.053l9.493.053c1.88-.053 3.852.579 5.687-.789.55-.421 1.468-.053 2.201-.053l15.822.105c2.476-.053 5.091.894 7.475-.789h6.328c2.064-.105 4.174.684 6.146-.789.55-.368 1.467-.053 2.247-.053 4.678.053 9.31.21 13.987.105 2.935-.053 5.962.894 8.852-.684 1.375 1.999 2.705-.473 4.127-.158 1.33.263 2.706-.105 4.036.105s2.247-.789 3.393-1c1.468-.21 2.936.474 4.403-.526 1.192-.842 2.614-.368 3.944-.368 1.514-.053 3.027.105 4.494 0 1.881-.158 3.899.631 5.687-.842 2.018.316 4.174-.684 6.1.894.779.631 1.421-1.105 2.384-.263.505.421 1.422.368 2.156.421l25.269.421c.917 0 1.743-.053 2.568-.631.597-.368 1.422-.263 2.202-.263l6.328.053c.734 0 1.468 0 2.11-.526.78-.684 1.697-.579 2.477.105.963.842 2.247.894 2.981.421 1.605-1.052 3.164-.737 4.769-.789 2.11 0 4.219.158 6.329.053 2.201-.105 4.494.789 6.558-.894 1.513 0 3.027-.053 4.494.053s2.981-.473 4.311.842c.367.368 1.147.158 1.743.21 1.605.158 3.302-.368 4.724 1.052.275.263 1.008.263 1.284 0 1.605-1.42 3.485-.684 5.228-.894 2.339-.263 4.769.842 7.016-.789.551-.368 1.468-.053 2.248-.053l31.139.421c1.193 0 2.385-.158 3.44.842.275.263.871.21 1.284.21l8.576.158c3.439-1.578 7.062-.631 10.639-.894.551-.053 1.147-.263 1.697-.473 2.064-.842 4.219-1 6.1.053 1.559.894 3.348-.053 4.723 1.21 1.239 1.105 3.119-.21 4.174 1.473.046.105.321.053.458 0 3.623-1.789 7.384-.368 11.053-.737 1.605-.158 3.21.21 4.815-.789 1.238-.737 2.981.263 4.311-.947.184-.158.688-.263.826-.105 1.605 1.473 3.485.894 5.228.947 1.834.053 3.577.316 5.09 1.526 1.422 1.157 3.348.21 4.586 1.736 1.651 0 3.302.21 4.953 0 3.394-.368 5.595.053 8.072 2.104.734.579 1.376 1.105 2.293 1.368v12.574H88.282.046L0 6.367z" fill="#002625"/></svg>