<svg id="Layer_1" data-name="Layer 1" xmlns="http://www.w3.org/2000/svg" viewBox="0 0 1908.63 339.78"><defs><style>.cls-1{fill:#002625}</style></defs><path class="cls-1" d="M252.61 4.52H1.85V104h50.6a46.35 46.35 0 0 0 20.77-4.91L75.37 98a4.41 4.41 0 0 1 5.92 5.91l-1.08 2.17a46.44 46.44 0 0 0-4.87 20.69v202h103.77V126.83a46.41 46.41 0 0 0-4.94-20.83l-1-2.06A4.41 4.41 0 0 1 179 98l2.08 1a46.38 46.38 0 0 0 20.81 5h50.72zm74.57 0L245 328.78h104.66L355 299.1a46.42 46.42 0 0 0-2.79-26.1v-.07a4.41 4.41 0 0 1 6-5.65l3.6 1.79a46.49 46.49 0 0 0 20.61 4.82h19.21a46.43 46.43 0 0 0 20.76-4.9l3.33-1.66a4.4 4.4 0 0 1 6 5.62 46.38 46.38 0 0 0-2.76 26l5.41 29.87h109L461.21 4.52zM372.36 199l16.34-92.33a3.09 3.09 0 0 1 6.09 0L411 199zM673 234.29l-2.11 1.05a4.4 4.4 0 0 1-5.92-5.9l1.07-2.15a46.42 46.42 0 0 0 4.85-20.66V4.52H567.1v324.26h207.53v-99.44h-80.81a46.33 46.33 0 0 0-20.82 4.95zM1085.46 4.52H971.32l-45.4 90.79c-8.13 16.27-11.87 27.18-16.6 43.52a4.38 4.38 0 0 1-8.54-1.9c3.12-19.43 7.85-45.09 7.85-69.29V4.52H804.86v324.26h103.77V274.3c0-24.2-4.73-49.86-7.85-69.29a4.38 4.38 0 0 1 8.54-1.9c4.73 16.39 8.49 27.66 17 43.52l45 82.15h118.46l-96-167.32zm189.1 190.23c0 33.72-12.1 43.24-32.42 43.24s-32.43-9.52-32.43-43.24V4.52H1106v185.91c0 99.44 43.66 144.84 134 144.84 89.93 0 134-45.4 134-144.84V4.52h-99.44zM1826 229.34a46.33 46.33 0 0 0-20.85 4.95l-2.1 1.05a4.41 4.41 0 0 1-5.93-5.9l1.07-2.15a46.43 46.43 0 0 0 4.86-20.66V4.52h-103.8v324.26h207.53v-99.44zM1459.47 4.52l-82.15 324.26H1482l5.37-29.68a46.33 46.33 0 0 0-2.87-26.1v-.07a4.41 4.41 0 0 1 6-5.65l3.6 1.79a46.49 46.49 0 0 0 20.61 4.82h19.21a46.43 46.43 0 0 0 20.76-4.9l3.33-1.66a4.4 4.4 0 0 1 6 5.62 46.38 46.38 0 0 0-2.76 26l5.41 29.87h109L1593.5 4.52zM1504.65 199l16.35-92.37a3.09 3.09 0 0 1 6.09 0l16.2 92.32z"/></svg>